<svg width="34" height="34" viewBox="0 0 34 34" fill="none" xmlns="http://www.w3.org/2000/svg">
<g id="Joker-card_icon" clip-path="url(#clip0_5101_238249)">
<g id="Union">
<path d="M1.18309 20.7206C1.19524 20.7601 1.21063 20.7985 1.2291 20.8354L1.23733 20.8519C1.33602 21.0495 1.47943 21.3366 1.75924 21.6199C1.76247 21.6234 1.76572 21.6269 1.76897 21.6303C1.69518 21.8602 1.63571 22.0735 1.59436 22.2651C1.56057 22.4216 1.53524 22.5801 1.52772 22.7311C1.52074 22.8713 1.52544 23.0636 1.59547 23.2562C1.60528 23.2832 1.61664 23.3096 1.62949 23.3353L1.63772 23.3517C1.73633 23.5492 1.87956 23.836 2.15886 24.119C2.71335 24.7161 3.69449 25.4666 4.84031 26.2507C6.00884 27.0504 7.4032 27.9212 8.81741 28.7544C9.89549 29.4059 11.0335 30.0572 12.1418 30.6588C12.1551 30.666 12.1686 30.6728 12.1823 30.6792C12.2416 30.723 12.3229 30.7716 12.4253 30.8057C14.0215 31.6976 15.7127 32.4913 17.4982 33.1871C17.7686 33.3172 18.1688 33.4497 18.5996 33.4497C18.6609 33.4497 18.722 33.4421 18.7815 33.4273C19.3876 33.2757 19.8191 32.8422 20.0898 32.5703C20.1036 32.5564 20.117 32.543 20.13 32.53C20.136 32.5239 20.142 32.5177 20.1479 32.5114C21.5876 30.9689 22.9129 29.1318 24.0244 27.4147C25.5334 25.201 26.9402 22.8898 28.3352 20.5979L28.3384 20.5927C28.3387 20.5922 28.339 20.5916 28.3394 20.5911C29.1475 19.2779 29.9586 17.8588 30.6704 16.4351C30.8834 16.0091 31.0919 15.4883 31.2855 15.0045C31.416 14.734 31.5496 14.3323 31.5496 13.8997C31.5496 13.8642 31.5471 13.8287 31.5421 13.7936C31.4934 13.4531 31.2754 13.1724 31.1244 12.9989C31.0492 12.9125 30.9642 12.824 30.8712 12.7339C30.9992 12.4355 31.1054 12.1642 31.1846 11.9276C31.2455 11.7459 31.2958 11.5688 31.3261 11.4061C31.3511 11.2719 31.3776 11.0735 31.3389 10.8694C31.2864 10.5459 31.086 10.2715 30.9405 10.0943C30.7627 9.87775 30.5278 9.64571 30.2594 9.40701C29.7222 8.92934 28.9857 8.36792 28.1301 7.76917C26.8768 6.82377 25.1546 5.67881 23.3011 4.56609L23.0159 4.37597C23 4.36532 22.9836 4.35529 22.9669 4.3459C20.9053 3.18942 18.7048 2.05045 16.8084 1.23588C15.8613 0.829082 14.9739 0.496156 14.2084 0.283592C13.4729 0.0793687 12.7422 -0.0460008 12.1617 0.062849L12.1617 0.0627955L12.1528 0.0645676C11.9412 0.106893 11.7683 0.210381 11.648 0.296652C11.5194 0.388791 11.3961 0.501356 11.2805 0.619749C11.0493 0.856527 10.7972 1.17012 10.5323 1.53195C10.0006 2.25812 9.36278 3.25438 8.66123 4.40682C6.99498 7.08331 5.03302 10.7062 3.53624 13.8255C2.78786 15.3852 2.14901 16.8329 1.72063 17.9817C1.50708 18.5544 1.33943 19.0696 1.23804 19.496C1.1874 19.709 1.14954 19.9151 1.13352 20.1044C1.11859 20.281 1.11659 20.5045 1.18309 20.7206Z" fill="url(#paint0_radial_5101_238249)" style="mix-blend-mode:screen"/>
<path d="M1.18309 20.7206C1.19524 20.7601 1.21063 20.7985 1.2291 20.8354L1.23733 20.8519C1.33602 21.0495 1.47943 21.3366 1.75924 21.6199C1.76247 21.6234 1.76572 21.6269 1.76897 21.6303C1.69518 21.8602 1.63571 22.0735 1.59436 22.2651C1.56057 22.4216 1.53524 22.5801 1.52772 22.7311C1.52074 22.8713 1.52544 23.0636 1.59547 23.2562C1.60528 23.2832 1.61664 23.3096 1.62949 23.3353L1.63772 23.3517C1.73633 23.5492 1.87956 23.836 2.15886 24.119C2.71335 24.7161 3.69449 25.4666 4.84031 26.2507C6.00884 27.0504 7.4032 27.9212 8.81741 28.7544C9.89549 29.4059 11.0335 30.0572 12.1418 30.6588C12.1551 30.666 12.1686 30.6728 12.1823 30.6792C12.2416 30.723 12.3229 30.7716 12.4253 30.8057C14.0215 31.6976 15.7127 32.4913 17.4982 33.1871C17.7686 33.3172 18.1688 33.4497 18.5996 33.4497C18.6609 33.4497 18.722 33.4421 18.7815 33.4273C19.3876 33.2757 19.8191 32.8422 20.0898 32.5703C20.1036 32.5564 20.117 32.543 20.13 32.53C20.136 32.5239 20.142 32.5177 20.1479 32.5114C21.5876 30.9689 22.9129 29.1318 24.0244 27.4147C25.5334 25.201 26.9402 22.8898 28.3352 20.5979L28.3384 20.5927C28.3387 20.5922 28.339 20.5916 28.3394 20.5911C29.1475 19.2779 29.9586 17.8588 30.6704 16.4351C30.8834 16.0091 31.0919 15.4883 31.2855 15.0045C31.416 14.734 31.5496 14.3323 31.5496 13.8997C31.5496 13.8642 31.5471 13.8287 31.5421 13.7936C31.4934 13.4531 31.2754 13.1724 31.1244 12.9989C31.0492 12.9125 30.9642 12.824 30.8712 12.7339C30.9992 12.4355 31.1054 12.1642 31.1846 11.9276C31.2455 11.7459 31.2958 11.5688 31.3261 11.4061C31.3511 11.2719 31.3776 11.0735 31.3389 10.8694C31.2864 10.5459 31.086 10.2715 30.9405 10.0943C30.7627 9.87775 30.5278 9.64571 30.2594 9.40701C29.7222 8.92934 28.9857 8.36792 28.1301 7.76917C26.8768 6.82377 25.1546 5.67881 23.3011 4.56609L23.0159 4.37597C23 4.36532 22.9836 4.35529 22.9669 4.3459C20.9053 3.18942 18.7048 2.05045 16.8084 1.23588C15.8613 0.829082 14.9739 0.496156 14.2084 0.283592C13.4729 0.0793687 12.7422 -0.0460008 12.1617 0.062849L12.1617 0.0627955L12.1528 0.0645676C11.9412 0.106893 11.7683 0.210381 11.648 0.296652C11.5194 0.388791 11.3961 0.501356 11.2805 0.619749C11.0493 0.856527 10.7972 1.17012 10.5323 1.53195C10.0006 2.25812 9.36278 3.25438 8.66123 4.40682C6.99498 7.08331 5.03302 10.7062 3.53624 13.8255C2.78786 15.3852 2.14901 16.8329 1.72063 17.9817C1.50708 18.5544 1.33943 19.0696 1.23804 19.496C1.1874 19.709 1.14954 19.9151 1.13352 20.1044C1.11859 20.281 1.11659 20.5045 1.18309 20.7206Z" stroke="#13013E" stroke-width="1.5" stroke-linejoin="round"/>
</g>
<path id="Vector" d="M19.6006 31.9997C19.3006 32.2997 19.0006 32.5997 18.6006 32.6997C18.3006 32.6997 18.0006 32.5997 17.8006 32.4997C16.0006 31.7997 14.3006 30.9997 12.7006 30.0997C12.6006 30.0997 12.6006 29.9997 12.5006 29.9997C9.0006 28.0997 5.2006 25.6997 4.0006 24.3997C3.8006 24.1997 3.7006 23.9997 3.6006 23.7997C3.2006 22.6997 7.8006 13.8997 11.0006 8.79965C12.4006 6.59965 13.5006 5.09965 14.0006 4.99965C15.5006 4.69965 20.1006 6.69965 24.0006 8.99965L24.3006 9.19965C27.7006 11.1997 30.7006 13.1997 30.8006 13.8997C30.8006 14.1997 30.7006 14.4997 30.6006 14.6997C30.4006 15.1997 30.2006 15.6997 30.0006 16.0997C29.3006 17.4997 28.5006 18.8997 27.7006 20.1997C26.3006 22.4997 24.9006 24.7997 23.4006 26.9997C22.3006 28.6997 21.0006 30.4997 19.6006 31.9997Z" fill="url(#paint1_radial_5101_238249)"/>
<g id="Group" opacity="0.3">
<path id="Vector_2" d="M14.5998 6.09961C13.0998 6.09961 7.99981 16.6996 8.29981 21.0996C8.59981 25.4996 22.6998 24.5996 25.7998 22.1996C28.8998 19.7996 29.4998 14.6996 28.2998 12.7996C27.0998 10.8996 16.2998 6.09961 14.5998 6.09961Z" fill="#F9B5CA"/>
</g>
<path id="Vector_3" d="M26 10.7C24.3 9.90005 24.5 12.6 25.5 14.1C26.5 15.6 29.2 13.8 29.7 13.5C30.1 13.3 27 11.2 26 10.7Z" fill="white"/>
<path id="Vector_4" d="M19.7 31.5C19.4 31.9 19.1 32.2 18.7 32.5C18.6 32.6 18.5 32.6 18.4 32.6C18.2 32.6 17.9 32.5 17.7 32.5C15.5 31.7 13.4 30.6 11.4 29.4C11.3 29.4 11.3 29.3 11.2 29.3C9 28.1 6.8 26.7 4.8 25.1C4.3 24.7 3.8 24.3 3.5 23.7C3.5 23.6 3.5 23.5 3.5 23.4C3.8 20.6 12.4 5.09997 13.9 4.79997C15.3 4.49997 19.1 6.09997 22.8 8.09997L23 8.29997C26.9 10.4 30.5 12.9 30.6 13.7C30.7 14 30.5 14.4 30.4 14.6C30.2 15.2 29.9 15.7 29.6 16.3C28.8 17.9 27.8 19.6 26.9 21.1C25.8 22.9 24.6 24.7 23.4 26.5C22.7 27.6 21.9 28.6 21.1 29.7C20.7 30.2 20.3 30.7 19.9 31.2C19.8 31.3 19.7 31.4 19.7 31.5Z" fill="#029596"/>
<path id="Vector_5" d="M18.2003 31.2C17.9003 31.5 17.6003 31.8 17.2003 31.9C16.9003 31.9 16.6003 31.8 16.4003 31.7C14.6003 31 12.9003 30.2 11.3003 29.3C11.2003 29.3 11.2003 29.2 11.1003 29.2C7.70031 27.3 3.90031 24.9 2.70031 23.6C2.50031 23.4 2.40031 23.2 2.30031 23C1.90031 21.9 6.40031 13.2 9.70031 7.99997C11.1003 5.79997 12.2003 4.29997 12.7003 4.19997C14.2003 3.89997 18.8003 5.89997 22.7003 8.19997L23.0003 8.29997C26.4003 10.3 29.4003 12.3 29.5003 13C29.7003 14.4 21.5003 28 18.2003 31.2Z" fill="url(#paint2_radial_5101_238249)"/>
<path id="Vector_6" d="M18.2003 31.2C17.9003 31.5 17.6003 31.8 17.2003 31.9C16.9003 31.9 16.6003 31.8 16.4003 31.7C14.6003 31 12.9003 30.2 11.3003 29.3C11.2003 29.3 11.2003 29.2 11.1003 29.2C7.70031 27.3 3.90031 24.9 2.70031 23.6C2.50031 23.4 2.40031 23.2 2.30031 23C1.90031 21.9 6.40031 13.2 9.70031 7.99997C11.1003 5.79997 12.2003 4.29997 12.7003 4.19997C14.2003 3.89997 18.8003 5.89997 22.7003 8.19997L23.0003 8.29997C26.4003 10.3 29.4003 12.3 29.5003 13C29.5003 13.3 29.4003 13.6 29.3003 13.8C29.1003 14.3 28.9003 14.8 28.7003 15.2C28.0003 16.6 27.2003 18 26.4003 19.4C25.4003 21.1 24.4003 22.7 23.3003 24.3C22.3003 25.8 21.3003 27.3 20.2003 28.7C19.7003 29.3 19.3003 29.9 18.8003 30.4C18.6003 30.8 18.4003 31 18.2003 31.2Z" fill="#014B63" fill-opacity="0.74"/>
<path id="Vector_7" d="M14.6992 4.19995C14.6992 4.19995 23.1992 7.19995 29.5992 13.2L30.6992 13.9C30.6992 13.9 30.4992 12.8 26.7992 10.3C23.0992 7.59995 18.9992 5.59995 14.6992 4.19995Z" fill="#8BFFFD"/>
<path id="Vector_8" d="M17.2004 31.9C17.1004 31.9 17.1004 31.9 17.2004 31.9C16.9004 31.9 16.7004 31.7999 16.5004 31.7999C15.5004 31.4999 13.3004 30.6999 9.40039 28.2999C3.60039 24.7999 2.40039 23.2 2.40039 23.2C2.40039 23.2 3.10039 23.8 4.30039 24.6C6.50039 26.2 8.80039 27.7 11.2004 29C11.4004 29.1 11.6004 29.1999 11.8004 29.2999C12.9004 29.8999 13.7004 30.3 14.5004 30.7C14.9004 30.9 15.2004 31 15.4004 31.2C15.9004 31.4 16.5004 31.7 17.2004 31.9Z" fill="#02C6C5"/>
<g id="Group_2" opacity="0.3">
<path id="Vector_9" d="M13.299 5.30005C11.799 5.30005 6.69903 15.9 6.99903 20.3C7.19903 24.7 21.399 23.8 24.499 21.4C27.599 19 28.199 13.9 26.999 12C25.799 10.1 14.899 5.30005 13.299 5.30005Z" fill="#F9B5CA"/>
</g>
<path id="Vector_10" d="M23.2996 24.5C19.5996 30.3 18.5996 31.3001 18.8996 31.7001C18.9996 31.9001 19.9996 30.8 19.9996 30.8C20.7996 29.9 21.5996 28.9 22.2996 28C23.8996 25.8 25.3996 23.6 26.7996 21.3C27.7996 19.6 28.7996 17.9 29.6996 16.2C29.7996 16 30.8996 13.9 30.6996 13.7C30.3996 13.5 30.1996 13.4 29.8996 13.3C29.7996 13.2 26.9996 18.7 23.2996 24.5Z" fill="#014B63" fill-opacity="0.74"/>
<path id="Vector_11" style="mix-blend-mode:screen" opacity="0.5" fill-rule="evenodd" clip-rule="evenodd" d="M18.9336 30.0528C19.2903 31.2161 22.1186 27.6898 22.733 26.8233C24.8188 23.8831 27.1675 20.0236 28.1343 16.8981C28.4623 15.8246 28.1314 14.736 27.2421 15.3082C24.8667 20.1108 22.1977 24.8714 19.2457 29.5713L19.1815 29.6708C19.1075 29.7883 19.023 29.9172 18.9327 30.0505L18.9336 30.0528Z" fill="url(#paint3_radial_5101_238249)"/>
<g id="Vector_12" style="mix-blend-mode:multiply" opacity="0.8">
<path d="M18.7004 30.5999C17.8004 31.7999 17.2004 31.9999 16.3004 31.5999C13.6004 30.4999 11.0004 29.1 8.60038 27.5C6.50038 26.2 4.50098 24.9999 2.70012 23.5995C2.47684 23.4259 2.40012 23.1995 2.30012 22.9995C2.10012 22.1995 3.70012 18.5995 5.70012 14.5995C5.10012 15.7995 4.50012 16.9995 4.00012 18.2995C3.70012 18.8995 3.40012 19.5995 3.20012 20.1995C3.00012 20.7995 2.60012 21.5995 2.80012 22.1995C3.29713 24.0219 6.05127 25.5856 7.50038 26.6C10.0004 28.2 15.2004 30.6999 18.7004 30.5999Z" fill="#01717C"/>
</g>
<path id="Vector_13" d="M24.6992 9.9C22.9992 9.1 23.1992 11.8 24.1992 13.3C25.1992 14.8 27.8992 13 28.3992 12.7C28.7992 12.5 25.6992 10.4 24.6992 9.9Z" fill="white"/>
<path id="Vector_14" d="M19.7 29.2996C19.1 29.9996 18.6 30.3996 18.3 30.3996C18 30.3996 17.8 30.2996 17.6 30.1996C15.4 29.2996 13.2 28.1996 11.2 26.8996C11 26.9996 11 26.9996 10.9 26.8996C8.6 25.5996 6.4 24.0996 4.3 22.4996C3.8 22.0996 3.3 21.5996 3 21.0996C3 20.9996 3 20.8996 3 20.7996C3.3 17.8996 11.9 1.79963 13.4 1.49963C14.8 1.19963 18.8 2.99963 22.5 5.09963L22.8 5.29963C26.8 7.59963 30.5 10.1996 30.6 10.9996C30.9 12.2996 23.2 25.3996 19.7 29.2996Z" fill="#029596"/>
<path id="Vector_15" d="M18.2999 29.1C18.0999 29.3 17.8999 29.5 17.5999 29.7C17.1999 29.9 16.7999 29.8 16.3999 29.6C14.5999 28.9 12.8999 28 11.1999 27C11.0999 27 10.9999 27 10.9999 27C7.49992 25 3.59992 22.5 2.29992 21.1C2.09992 20.9 1.99992 20.7 1.89992 20.5C1.49992 19.2 5.99992 10.1 9.29992 4.8C10.6999 2.5 11.7999 0.900003 12.2999 0.800003C13.8999 0.500003 18.4999 2.7 22.5999 5L22.8999 5.2C26.3999 7.3 29.3999 9.5 29.5999 10.2C29.5999 10.4 29.5999 10.6 29.4999 10.8C29.3999 11.1 29.2999 11.4 29.0999 11.8C28.6999 12.8 28.1999 13.7 27.6999 14.6C27.0999 15.8 26.3999 17 25.6999 18.2C24.5999 20.1 23.3999 21.9 22.1999 23.8C21.0999 25.6 19.7999 27.4 18.3999 28.9C18.3999 29 18.2999 29 18.2999 29.1Z" fill="url(#paint4_radial_5101_238249)"/>
<path id="Vector_16" style="mix-blend-mode:screen" d="M18.2992 29.1C17.9993 29.4 17.6993 29.6 17.3993 29.7C17.0993 29.8 16.6993 29.7 16.3993 29.6C14.5993 28.9 12.8993 28 11.1993 27C11.0993 27 10.9993 27 10.9993 26.9C7.49925 24.9 3.59925 22.4 2.39925 21C2.19925 20.8 2.09925 20.6 1.99925 20.4C1.49925 19.2 5.99925 10.1 9.29925 4.8C10.6993 2.5 11.7993 0.900003 12.2993 0.800003C13.8993 0.500003 18.4993 2.7 22.5993 5L22.8993 5.2C26.3993 7.3 29.3993 9.5 29.5993 10.2C29.6993 10.5 29.4993 10.9 29.3993 11.2C29.1992 11.8 28.8993 12.4 28.5993 13C28.1993 13.8 27.7992 14.6 27.3993 15.3C26.8993 16.2 26.3993 17.1 25.8993 18C25.2992 19 24.7993 19.9 24.1993 20.9C23.5993 21.8 22.9993 22.8 22.3993 23.7C21.3993 25.2 20.4993 26.6 19.3993 28C18.8993 28.3 18.5992 28.7 18.2992 29.1Z" fill="url(#paint5_radial_5101_238249)"/>
<path id="Vector_17" style="mix-blend-mode:screen" d="M16.9924 26.4686C16.7539 26.7171 16.5153 26.8828 16.2767 26.9657C16.0382 27.0485 15.7201 26.9657 15.4815 26.8828C14.0501 26.3029 12.6983 25.5573 11.3464 24.7288C11.2669 24.7288 11.1874 24.7288 11.1874 24.646C8.40414 22.989 5.30281 20.9178 4.34855 19.758C4.18951 19.5923 4.10999 19.4266 4.03047 19.2609C3.63286 18.2667 7.21132 10.7276 9.83552 6.33671C10.9488 4.43122 11.8235 3.10567 12.2212 3.02282C13.4935 2.77428 17.1515 4.59692 20.4118 6.5024L20.6504 6.6681C23.4336 8.40789 25.8193 10.2305 25.9783 10.8105C26.0578 11.059 25.8988 11.3904 25.8193 11.6389C25.6602 12.136 25.4217 12.6331 25.1831 13.1302C24.865 13.793 24.5469 14.4557 24.2289 15.0357C23.8313 15.7813 23.4336 16.5269 23.036 17.2726C22.5589 18.101 22.1613 18.8467 21.6842 19.6751C21.2071 20.4207 20.7299 21.2492 20.2528 21.9948C19.4576 23.2376 18.7419 24.3974 17.8672 25.5573C17.4696 25.8058 17.231 26.1372 16.9924 26.4686Z" fill="url(#paint6_radial_5101_238249)"/>
<path id="Vector_18" d="M14.1992 1C14.1992 1 22.8992 4.1 29.4992 10.2L30.6992 10.9C30.6992 10.9 30.4992 9.8 26.5992 7.2C22.6992 4.6 18.5992 2.5 14.1992 1Z" fill="#8BFFFD"/>
<path id="Vector_19" d="M18.3008 30.5C18.3008 30.4 18.3008 30.4 18.3008 30.5C18.0008 30.5 17.8008 30.4 17.5008 30.3C16.4008 30 14.1008 29.1 9.90078 26.5C3.60078 22.7 2.40078 21.1 2.30078 21C2.30078 21 3.10078 21.6 4.40078 22.5C6.80078 24.2 9.20078 25.8 11.8008 27.2C12.0008 27.3 12.3008 27.5 12.5008 27.6C13.6008 28.2 14.6008 28.7 15.4008 29.1C15.8008 29.3 16.1008 29.5 16.4008 29.6C16.9008 29.9 17.6008 30.2 18.3008 30.5Z" fill="#143446"/>
<g id="Vector_20" style="mix-blend-mode:overlay" opacity="0.3">
<path d="M22.6996 22.9004C21.7996 24.4004 20.7996 25.8004 19.7996 27.2004C19.3996 27.7004 18.9996 28.2004 18.5996 28.7004C18.1996 29.2004 17.7996 29.6004 17.1996 29.8004C16.8996 29.8004 16.5996 29.7004 16.2996 29.6004C14.4996 28.9004 12.7996 28.0004 11.0996 27.0004C11.0996 27.0004 10.9996 26.9004 10.8996 26.9004C9.99961 26.4004 8.99961 25.8004 8.09961 25.2004C10.3996 25.7004 12.8996 25.7004 15.3996 25.4004C18.0996 25.0004 20.5996 24.1004 22.6996 22.9004Z" fill="url(#paint7_linear_5101_238249)"/>
</g>
<g id="J" filter="url(#filter0_di_5101_238249)">
<path d="M22.4001 10.9996L18.1001 18.6996C17.3001 20.2996 16.2001 21.1996 15.1001 21.5996C14.7001 21.6996 14.4001 21.7996 14.0001 21.7996C13.0001 21.7996 12.1001 21.4996 11.3001 20.9996C10.4001 20.4996 9.60013 19.7996 9.10013 18.8996C8.70013 18.0996 8.60013 17.1996 8.70013 16.2996C8.80013 15.3996 9.20013 14.4996 9.60013 13.6996L10.0001 12.8996L12.7001 14.7996L12.3001 15.0996C11.9001 15.4996 11.6001 15.8996 11.3001 16.2996C11.1001 16.4996 11.0001 16.7996 11.0001 17.0996C10.9001 17.3996 11.0001 17.6996 11.0001 17.9996C11.1001 18.2996 11.2001 18.4996 11.4001 18.6996C11.6001 18.8996 11.8001 19.0996 12.1001 19.1996C12.3001 19.3996 12.6001 19.4996 12.9001 19.4996C13.2001 19.4996 13.5001 19.4996 13.7001 19.3996C14.1001 19.2996 14.6001 18.7996 15.4001 17.4996L18.9001 11.2996L16.7001 9.99961C16.6001 9.99961 16.4001 9.99961 16.3001 9.99961C16.0001 10.1996 15.8001 10.4996 15.7001 10.7996L15.5001 11.1996L14.3001 10.4996L14.5001 10.1996C14.7001 9.79961 14.9001 9.39961 15.1001 8.89961C15.2001 8.49961 15.3001 8.09961 15.3001 7.69961L15.4001 7.09961L22.4001 10.9996Z" fill="white"/>
</g>
<path id="Vector_21" d="M21.0999 10.8004C20.2999 9.90038 20.3999 12.3004 20.8999 12.6004C21.3999 12.9004 21.7999 11.5004 21.0999 10.8004Z" fill="white"/>
<path id="Vector_22" d="M29.5001 10.2C29.5001 10.2 30.2001 10.6 30.6001 10.9C30.6001 12.3 25.8001 21.5 20.3001 28.6C15.7001 33.3 22.4001 23.7 25.9001 17.6C27.7001 14.7 29.5001 10.2 29.5001 10.2Z" fill="url(#paint8_radial_5101_238249)"/>
<g id="Vector_23" style="mix-blend-mode:multiply" opacity="0.3">
<path d="M29.4996 10.2C17.4996 6 9.79961 8.6 5.59961 11.4C6.79961 9.1 8.09961 6.7 9.29961 4.8C10.6996 2.6 11.7996 0.900003 12.2996 0.800003C13.8996 0.500003 18.4996 2.7 22.5996 5L22.8996 5.2C26.2996 7.3 29.2996 9.4 29.4996 10.2Z" fill="#F9B5CA"/>
</g>
<path id="Vector_24" d="M29.5 10.1996C29.6 10.6996 28.8 12.3996 27.6 14.6996C28.5 11 24.3713 6.02684 19.5 3.39941C21.1263 4.27659 22.5775 4.99968 22.9 5.19961C26.3 7.29961 29.4 9.49961 29.5 10.1996Z" fill="white"/>
<path id="Vector_25" opacity="0.6" d="M20.9996 4.5C15.2996 1 11.9996 1.9 10.0996 3.5C11.0996 2 11.8996 0.900003 12.2996 0.800003C13.8996 0.500003 18.4996 2.7 22.5996 5C22.5996 5.5 21.6221 4.88222 20.9996 4.5Z" fill="white"/>
<path id="Vector_26" opacity="0.5" d="M29.3004 11.0996C29.1004 11.6996 28.8004 12.3996 28.5004 12.9996C28.1004 13.8996 27.6004 14.6996 27.2004 15.5996C26.7004 16.5996 26.1004 17.5996 25.5004 18.5996C24.9004 19.5996 24.3004 20.6996 23.6004 21.6996C23.0004 22.6996 22.3004 23.6996 21.7004 24.5996C21.1004 25.4996 20.5004 26.2996 19.9004 27.0996C19.4004 27.6996 18.9004 28.3996 18.4004 28.8996C18.1004 29.1996 17.9004 29.4996 17.6004 29.5996C17.2004 29.7996 16.8004 29.6996 16.3004 29.5996C14.5004 28.8996 12.8004 27.9996 11.1004 26.9996C11.1004 26.9996 11.0004 26.8996 10.9004 26.8996C7.40039 24.8996 3.50039 22.3996 2.30039 20.9996C2.10039 20.7996 2.00039 20.5996 1.90039 20.3996C1.90039 20.2996 1.90039 20.1996 1.90039 20.0996C3.30039 21.4996 7.20039 24.0996 10.8004 26.0996C10.8004 26.0996 10.9004 26.1996 11.0004 26.1996C12.7004 27.1996 14.5004 28.0996 16.4004 28.7996C16.6004 28.8996 16.8004 28.8996 17.0004 28.9996C17.2004 28.9996 17.3004 28.9996 17.5004 28.8996C18.0004 28.6996 18.4004 28.1996 18.7004 27.7996C19.0004 27.4996 19.2004 27.1996 19.5004 26.7996C20.1004 25.9996 20.8004 25.0996 21.4004 24.2996C22.1004 23.2996 22.8004 22.2996 23.4004 21.1996C24.1004 20.0996 24.8004 18.9996 25.4004 17.8996C26.0004 16.7996 26.7004 15.7996 27.3004 14.6996C27.8004 13.7996 28.3004 12.8996 28.8004 11.8996C29.0004 11.6996 29.2004 11.3996 29.3004 11.0996Z" fill="white"/>
</g>
<defs>
<filter id="filter0_di_5101_238249" x="8.66406" y="7.09961" width="14.7363" height="15.7" filterUnits="userSpaceOnUse" color-interpolation-filters="sRGB">
<feFlood flood-opacity="0" result="BackgroundImageFix"/>
<feColorMatrix in="SourceAlpha" type="matrix" values="0 0 0 0 0 0 0 0 0 0 0 0 0 0 0 0 0 0 127 0" result="hardAlpha"/>
<feOffset dx="1" dy="1"/>
<feComposite in2="hardAlpha" operator="out"/>
<feColorMatrix type="matrix" values="0 0 0 0 0.0784314 0 0 0 0 0.203922 0 0 0 0 0.27451 0 0 0 1 0"/>
<feBlend mode="normal" in2="BackgroundImageFix" result="effect1_dropShadow_5101_238249"/>
<feBlend mode="normal" in="SourceGraphic" in2="effect1_dropShadow_5101_238249" result="shape"/>
<feColorMatrix in="SourceAlpha" type="matrix" values="0 0 0 0 0 0 0 0 0 0 0 0 0 0 0 0 0 0 127 0" result="hardAlpha"/>
<feOffset dx="0.5" dy="0.5"/>
<feComposite in2="hardAlpha" operator="arithmetic" k2="-1" k3="1"/>
<feColorMatrix type="matrix" values="0 0 0 0 0.641667 0 0 0 0 1 0 0 0 0 0.998243 0 0 0 1 0"/>
<feBlend mode="normal" in2="shape" result="effect2_innerShadow_5101_238249"/>
</filter>
<radialGradient id="paint0_radial_5101_238249" cx="0" cy="0" r="1" gradientUnits="userSpaceOnUse" gradientTransform="translate(-4.86652 4.57416) scale(33.6121 21.5661)">
<stop stop-color="#00FFFF"/>
<stop offset="0.11" stop-color="#00FAFA"/>
<stop offset="0.234" stop-color="#00EDED"/>
<stop offset="0.365" stop-color="#00D6D6"/>
<stop offset="0.5" stop-color="#00B7B7"/>
<stop offset="0.639" stop-color="#008E8E"/>
<stop offset="0.781" stop-color="#005C5C"/>
<stop offset="0.922" stop-color="#002323"/>
<stop offset="1"/>
</radialGradient>
<radialGradient id="paint1_radial_5101_238249" cx="0" cy="0" r="1" gradientUnits="userSpaceOnUse" gradientTransform="translate(20.7078 7.31665) rotate(29.1083) scale(32.9613 23.9208)">
<stop stop-color="#00FCDE"/>
<stop offset="1" stop-color="#018084"/>
</radialGradient>
<radialGradient id="paint2_radial_5101_238249" cx="0" cy="0" r="1" gradientUnits="userSpaceOnUse" gradientTransform="translate(19.3434 6.63673) rotate(29.1081) scale(32.9557 23.9184)">
<stop stop-color="#00FCDE"/>
<stop offset="1" stop-color="#018084"/>
</radialGradient>
<radialGradient id="paint3_radial_5101_238249" cx="0" cy="0" r="1" gradientUnits="userSpaceOnUse" gradientTransform="translate(11.6315 17.6287) rotate(-21.6263) scale(21.4481 15.2035)">
<stop stop-color="#00FFFF"/>
<stop offset="0.11" stop-color="#00FAFA"/>
<stop offset="0.234" stop-color="#00EDED"/>
<stop offset="0.365" stop-color="#00D6D6"/>
<stop offset="0.5" stop-color="#00B7B7"/>
<stop offset="0.639" stop-color="#008E8E"/>
<stop offset="0.781" stop-color="#005C5C"/>
<stop offset="0.922" stop-color="#002323"/>
<stop offset="1"/>
</radialGradient>
<radialGradient id="paint4_radial_5101_238249" cx="0" cy="0" r="1" gradientUnits="userSpaceOnUse" gradientTransform="translate(19.1422 3.47918) rotate(30) scale(34.077 24.5834)">
<stop stop-color="#00FCDE"/>
<stop offset="1" stop-color="#018084"/>
</radialGradient>
<radialGradient id="paint5_radial_5101_238249" cx="0" cy="0" r="1" gradientUnits="userSpaceOnUse" gradientTransform="translate(-15.8207 1.64478) scale(53.1526 29.8683)">
<stop stop-color="#00FFFF"/>
<stop offset="1" stop-color="#005C5C"/>
</radialGradient>
<radialGradient id="paint6_radial_5101_238249" cx="0" cy="0" r="1" gradientUnits="userSpaceOnUse" gradientTransform="translate(-10.1402 3.72269) scale(42.2676 24.7451)">
<stop stop-color="#00FFFF"/>
<stop offset="0.11" stop-color="#00FAFA"/>
<stop offset="0.234" stop-color="#00EDED"/>
<stop offset="0.365" stop-color="#00D6D6"/>
<stop offset="0.5" stop-color="#00B7B7"/>
<stop offset="0.639" stop-color="#008E8E"/>
<stop offset="0.781" stop-color="#005C5C"/>
<stop offset="0.922" stop-color="#002323"/>
<stop offset="1"/>
</radialGradient>
<linearGradient id="paint7_linear_5101_238249" x1="15.3996" y1="22.9004" x2="15.3996" y2="29.8004" gradientUnits="userSpaceOnUse">
<stop stop-color="white" stop-opacity="0.24"/>
<stop offset="1" stop-color="white"/>
</linearGradient>
<radialGradient id="paint8_radial_5101_238249" cx="0" cy="0" r="1" gradientUnits="userSpaceOnUse" gradientTransform="translate(23.2016 10.4259) scale(19.3257 19.5143)">
<stop stop-color="#00FCDE"/>
<stop offset="1" stop-color="#018084"/>
</radialGradient>
<clipPath id="clip0_5101_238249">
<rect width="34" height="34" fill="white"/>
</clipPath>
</defs>
</svg>
